# xmcd
#
# Track frame offsets:
#   150
#   25452
#   43569
#   63471
#   80483
#   104857
#   118982
#   136126
#   154281
#   172436
#   192320
#   210687
#   228759
#
# Disc length: 3293 seconds
#
# Revision: 0
# Processed by: cddbd v1.4PL0 Copyright (c) Steve Scherf et al.
# Submitted via: Precision_Digital_Audio_Extractor 1.60.0
#
DISCID=c30cdb0d
DTITLE=Toby Keith - Shock'n Y'all
DYEAR=2002
DGENRE=Country
TTITLE0=I Love This Bar
TTITLE1=Girl
TTITLE2=American Soldier
TTITLE3=If I Was Jesus
TTITLE4=Time For Me To Ride
TTITLE5=Sweet
TTITLE6=Don't Leave, I Think I Love You
TTITLE7=Nights I Can't Remember, Freinds I'll Never Forget
TTITLE8=Baddest Boots
TTITLE9=The Critic
TTITLE10=The Taliban Song
TTITLE11=Weed With Willie
TTITLE12=
EXTD=
EXTT0=
EXTT1=
EXTT2=
EXTT3=
EXTT4=
EXTT5=
EXTT6=
EXTT7=
EXTT8=
EXTT9=
EXTT10=
EXTT11=
EXTT12=
PLAYORDER=
